<?xml version="1.0" encoding="UTF-8"?>
<svg id="_레이어_2" data-name="레이어_2" xmlns="http://www.w3.org/2000/svg" viewBox="0 0 26.6 28.13">
  <g id="_기본_네모" data-name="기본_네모">
    <path d="M11.94,15.91c-1.44,0-3.59-.46-5.89-2.56C2.09,9.73,3.63,1.29,3.7.94L3.87,0h.95c.22,0,5.39,0,8.86,3.86.23.25.44.53.63.82l.4.63-.41.63c-1.97,3.05.08,8.13.1,8.18l.45,1.08-1.09.43c-.06.02-.74.28-1.81.28ZM5.81,2.38c-.31,2.58-.37,7.28,1.8,9.26,1.71,1.57,3.23,1.94,4.2,1.97-.55-1.9-1.21-5.38.16-8.21h0c-1.96-2.19-4.72-2.83-6.16-3.02Z"/>
    <path d="M14.73,15.91c-1.07,0-1.75-.25-1.81-.28l.82-2.15c.1.04,2.43.82,5.33-1.83,2.17-1.98,2.11-6.69,1.8-9.26-1.44.19-4.19.84-6.16,3.03-.15.17-.29.35-.41.53l-1.93-1.25c.19-.29.4-.56.63-.82C16.47,0,21.67,0,21.86,0h.95s.17.94.17.94c.07.36,1.6,8.79-2.35,12.41-2.3,2.1-4.45,2.56-5.89,2.56Z"/>
    <g>
      <path d="M26.6,28.13h-14.45v-11.09h1.15c1.68,0,3.33-.45,4.78-1.29l.52-.3,8,3.72v8.96ZM14.45,25.83h9.85v-5.19l-5.6-2.6c-1.32.68-2.77,1.11-4.25,1.25v6.54Z"/>
      <path d="M14.45,28.13H0v-8.96l8-3.72.52.3c1.44.84,3.1,1.29,4.78,1.29h1.15v11.09ZM2.3,25.83h9.85v-6.54c-1.48-.15-2.93-.57-4.25-1.25l-5.6,2.6v5.19Z"/>
    </g>
  </g>
</svg>