<?xml version="1.0" encoding="UTF-8"?>
<svg id="_레이어_2" data-name="레이어_2" xmlns="http://www.w3.org/2000/svg" viewBox="0 0 26.6 31.93">
  <defs>
    <style>
      .cls-1 {
        fill: none;
        stroke: #000;
        stroke-miterlimit: 10;
        stroke-width: 2.3px;
      }
    </style>
  </defs>
  <g id="_기본_네모" data-name="기본_네모">
    <path class="cls-1" d="M8.89,6.49c.53-2.78,1.66-5.13,1.66-5.13,0,0,4.67,1.22,6.82,5.44.11.21.2.43.28.65"/>
    <path class="cls-1" d="M10.79,17.39c-.81-.07-1.74-.28-2.77-.71C3.6,14.86,2.26,6.7,2.26,6.7c0,0,4.52-1.68,8.7.54,1.01.54,1.75,1.34,2.31,2.26"/>
    <path class="cls-1" d="M23.38,7.89s-4.52-1.68-8.7.54c-4.18,2.23-3.88,9.15-3.88,9.15,0,0,2.4,2.11,6.82.29s5.76-9.98,5.76-9.98Z"/>
    <g>
      <path class="cls-1" d="M18.66,20.55c-1.57.92-3.4,1.45-5.36,1.45v8.79h12.15v-7.08l-6.79-3.16Z"/>
      <path class="cls-1" d="M1.15,23.71v7.08h12.15v-8.79c-1.95,0-3.78-.53-5.36-1.45l-6.79,3.16Z"/>
    </g>
  </g>
</svg>