<?xml version="1.0" encoding="UTF-8"?>
<svg id="_레이어_2" data-name="레이어_2" xmlns="http://www.w3.org/2000/svg" viewBox="0 0 26.6 31.05">
  <g id="_기본_네모" data-name="기본_네모">
    <path d="M6.87,6.29l-2.3-.07c.09-2.8.75-5.2.78-5.3l.26-.91.94.08c.22.02,5.36.48,8.49,4.63l-1.84,1.38c-1.76-2.35-4.44-3.23-5.87-3.55-.18.89-.42,2.27-.46,3.75Z"/>
    <path d="M13.8,7.94l-2.24-.52c.23-.98.63-1.85,1.19-2.61C15.88.67,21.02.21,21.24.19l.94-.08.26.91c.04.14.94,3.41.77,6.79l-2.3-.12c.1-1.96-.22-3.91-.45-5.05-1.42.32-4.1,1.2-5.87,3.55-.37.5-.64,1.08-.79,1.74Z"/>
    <path d="M10.95,17.77c-.64-.03-1.31-.12-1.98-.27C3.73,16.35.85,8.28.73,7.94l-.31-.89.82-.48c.19-.11,4.67-2.69,9.61-1.08,1.47.48,2.73,1.46,3.77,2.92l-1.88,1.33c-.74-1.05-1.62-1.75-2.61-2.07-2.79-.91-5.5-.1-6.85.46,1.02,2.39,3.32,6.49,6.19,7.12.55.12,1.08.19,1.59.21l-.1,2.3Z"/>
    <path d="M14.93,18.97c-3.63,0-5.32-2.04-5.41-2.15l-.31-.38.06-.49c.04-.31,1.06-7.6,6.19-9.28,4.94-1.61,9.42.97,9.61,1.08l.82.48-.31.89c-.12.34-3.01,8.41-8.24,9.57-.88.19-1.68.28-2.41.28ZM11.66,15.69c.66.51,2.29,1.39,5.18.75,2.88-.63,5.17-4.74,6.19-7.12-1.35-.56-4.05-1.37-6.85-.46-3.07,1-4.21,5.28-4.52,6.83Z"/>
    <g>
      <path d="M26.6,31.05h-14.45v-11.09h1.15c1.68,0,3.33-.45,4.78-1.29l.52-.3,8,3.72v8.96ZM14.45,28.75h9.85v-5.19l-5.6-2.6c-1.32.68-2.77,1.11-4.25,1.25v6.54Z"/>
      <path d="M14.45,31.05H0v-8.96l8-3.72.52.3c1.44.84,3.1,1.29,4.78,1.29h1.15v11.09ZM2.3,28.75h9.85v-6.54c-1.48-.15-2.93-.57-4.25-1.25l-5.6,2.6v5.19Z"/>
    </g>
  </g>
</svg>