<svg width="23" height="24" viewBox="0 0 23 24" fill="none" xmlns="http://www.w3.org/2000/svg">
<mask id="mask0_2_798" style="mask-type:alpha" maskUnits="userSpaceOnUse" x="0" y="1" width="22" height="22">
<rect y="1" width="22" height="22" fill="#D9D9D9"/>
</mask>
<g mask="url(#mask0_2_798)">
</g>
<g clip-path="url(#clip0_2_798)">
<path d="M10.1031 13.6162C8.88467 13.6162 7.06544 13.2269 5.11928 11.45C1.76851 8.38695 3.07159 1.24541 3.13082 0.949254L3.27467 0.15387H4.07851C4.26467 0.15387 8.63928 0.15387 11.5754 3.42002C11.7701 3.63156 11.9477 3.86848 12.1085 4.11387L12.447 4.64695L12.1001 5.18002C10.4331 7.76079 12.1677 12.0593 12.1847 12.1016L12.5654 13.0154L11.6431 13.3793C11.5924 13.3962 11.017 13.6162 10.1116 13.6162H10.1031ZM4.91621 2.16772C4.6539 4.35079 4.60313 8.32772 6.43928 10.0031C7.88621 11.3316 9.17236 11.6446 9.99313 11.67C9.52774 10.0623 8.96928 7.11772 10.1285 4.7231C8.47005 2.87002 6.13467 2.32849 4.91621 2.16772Z" fill="#98C633"/>
<path d="M12.464 13.6162C11.5586 13.6162 10.9832 13.4046 10.9324 13.3793L11.6263 11.56C11.7109 11.5939 13.6824 12.2539 16.1363 10.0116C17.9724 8.33618 17.9217 4.35079 17.6593 2.17618C16.4409 2.33695 14.114 2.88695 12.447 4.74002C12.3201 4.88387 12.2017 5.03618 12.1001 5.18848L10.467 4.13079C10.6278 3.88541 10.8055 3.65695 11.0001 3.43695C13.9363 0.15387 18.3363 0.15387 18.497 0.15387H19.3009L19.4447 0.949254C19.504 1.25387 20.7986 8.38695 17.4563 11.45C15.5101 13.2269 13.6909 13.6162 12.4724 13.6162H12.464Z" fill="#98C633"/>
<path d="M22.5077 23.9562H10.2808V14.5723H11.2538C12.6754 14.5723 14.0715 14.1915 15.2985 13.4808L15.7385 13.2269L22.5077 16.3746V23.9562ZM12.2269 22.01H20.5615V17.6185L15.8231 15.4185C14.7061 15.9939 13.4792 16.3577 12.2269 16.4762V22.01Z" fill="#98C633"/>
<path d="M12.2269 23.9562H0V16.3746L6.76923 13.2269L7.20923 13.4808C8.42769 14.1915 9.83231 14.5723 11.2538 14.5723H12.2269V23.9562ZM1.94615 22.01H10.2808V16.4762C9.02846 16.3492 7.80154 15.9939 6.68462 15.4185L1.94615 17.6185V22.01Z" fill="#98C633"/>
</g>
<defs>
<clipPath id="clip0_2_798">
<rect width="22.5077" height="23.8023" fill="white" transform="translate(0 0.15387)"/>
</clipPath>
</defs>
</svg>
