<?xml version="1.0" encoding="UTF-8"?>
<svg id="_레이어_2" data-name="레이어_2" xmlns="http://www.w3.org/2000/svg" viewBox="0 0 24.08 28.69">
  <defs>
    <style>
      .cls-1 {
        stroke-width: 2.3px;
      }

      .cls-1, .cls-2 {
        fill: none;
        stroke: #000;
        stroke-miterlimit: 10;
      }

      .cls-2 {
        stroke-width: 2.3px;
      }
    </style>
  </defs>
  <g id="_기본_네모" data-name="기본_네모">
    <line class="cls-1" x1="7.65" y1="15" x2="19.4" y2="23.99"/>
    <line class="cls-1" x1="19.4" y1="4.07" x2="7.63" y2="13.7"/>
    <path class="cls-2" d="M22.01,4.94c1.16-1.04.89-3.38.89-3.38,0,0-2.87-1.02-3.93.14-1.06,1.16-.52,3.11-.52,3.11,0,0,2.4,1.17,3.55.13Z"/>
    <path class="cls-2" d="M4.15,12c-1.55.1-2.8,2.1-2.8,2.1,0,0,1.63,2.57,3.17,2.32,1.55-.26,2.33-2.12,2.33-2.12,0,0-1.16-2.4-2.71-2.3Z"/>
    <path class="cls-2" d="M18,23.88s-.54,1.95.52,3.11c1.06,1.16,3.93.14,3.93.14,0,0,.26-2.34-.89-3.38-1.16-1.04-3.55.13-3.55.13Z"/>
  </g>
</svg>